<?xml version="1.0" encoding="UTF-8" standalone="no"?>
<!-- Created with Inkscape (http://www.inkscape.org/) -->

<svg
   xmlns:dc="http://purl.org/dc/elements/1.1/"
   xmlns:cc="http://creativecommons.org/ns#"
   xmlns:rdf="http://www.w3.org/1999/02/22-rdf-syntax-ns#"
   xmlns:svg="http://www.w3.org/2000/svg"
   xmlns="http://www.w3.org/2000/svg"
   xmlns:sodipodi="http://sodipodi.sourceforge.net/DTD/sodipodi-0.dtd"
   xmlns:inkscape="http://www.inkscape.org/namespaces/inkscape"
   width="744.09448819"
   height="1052.3622047"
   id="svg2"
   version="1.1"
   inkscape:version="0.48.4 r"
   sodipodi:docname="New document 1">
  <defs
     id="defs4" />
  <sodipodi:namedview
     id="base"
     pagecolor="#ffffff"
     bordercolor="#666666"
     borderopacity="1.0"
     inkscape:pageopacity="0.0"
     inkscape:pageshadow="2"
     inkscape:zoom="1.4"
     inkscape:cx="277.77885"
     inkscape:cy="992.80769"
     inkscape:document-units="px"
     inkscape:current-layer="layer1"
     showgrid="false"
     inkscape:window-width="1920"
     inkscape:window-height="1017"
     inkscape:window-x="-8"
     inkscape:window-y="-8"
     inkscape:window-maximized="1" />
  <metadata
     id="metadata7">
    <rdf:RDF>
      <cc:Work
         rdf:about="">
        <dc:format>image/svg+xml</dc:format>
        <dc:type
           rdf:resource="http://purl.org/dc/dcmitype/StillImage" />
        <dc:title></dc:title>
      </cc:Work>
    </rdf:RDF>
  </metadata>
  <g
     inkscape:label="Layer 1"
     inkscape:groupmode="layer"
     id="layer1">
    <path
       style="fill:#88aa00;fill-opacity:1;stroke:#aad400;stroke-width:2.29999995000000010;stroke-linecap:round;stroke-linejoin:round;stroke-miterlimit:4;stroke-opacity:1;stroke-dasharray:none"
       d="m 330.95939,564.06431 c 5,23.21429 7.85714,26.42857 7.85714,26.42857 28.39526,11.90156 5.65345,15.01126 -2.52846,7.88561 3.32566,-0.31723 -22.70522,20.13305 -4.61439,-5.38561 0,0 0.91905,-6.56357 -8.17233,-26.76662"
       id="path3789"
       inkscape:connector-curvature="0"
       sodipodi:nodetypes="ccccc" />
    <path
       style="fill:#88aa00;fill-opacity:1;stroke:#aad400;stroke-width:3.90000010000000020;stroke-linecap:round;stroke-linejoin:round;stroke-miterlimit:4;stroke-opacity:1;stroke-dasharray:none"
       d="m 316.63439,542.51074 c -75.35864,-76.6271 -143.34479,19.91952 -143.34479,19.91952 0,0 18.15349,-18.41393 45.67216,-0.15089 0,0 11.67306,-15.40987 31.79476,-5.29119 0,0 9.8302,-13.61083 30.30124,-3.41789"
       id="path3757-8"
       inkscape:connector-curvature="0" />
    <path
       sodipodi:type="arc"
       style="fill:#88aa00;stroke:#aad400;stroke-width:6.09999999999999960;stroke-miterlimit:4;stroke-dasharray:none;stroke-linejoin:round;stroke-linecap:round"
       id="path2985"
       sodipodi:cx="313.14728"
       sodipodi:cy="528.09302"
       sodipodi:rx="53.538086"
       sodipodi:ry="53.538086"
       d="m 366.68536,528.09302 a 53.538086,53.538086 0 1 1 -107.07617,0 53.538086,53.538086 0 1 1 107.07617,0 z" />
    <path
       style="fill:#88aa00;fill-opacity:1;stroke:#aad400;stroke-width:2.29999995000000010;stroke-linecap:round;stroke-linejoin:round;stroke-miterlimit:4;stroke-opacity:1;stroke-dasharray:none"
       d="m 294.66106,572.94199 c 5,23.21429 7.85714,26.42857 7.85714,26.42857 28.39526,11.90156 5.65345,15.01126 -2.52846,7.88561 3.32566,-0.31723 -22.70522,20.13305 -4.61439,-5.38561 0,0 0.91905,-6.56357 -8.17233,-26.76662"
       id="path3789-0"
       inkscape:connector-curvature="0"
       sodipodi:nodetypes="ccccc" />
    <path
       style="fill:#88aa00;fill-opacity:1;stroke:#aad400;stroke-width:3.90000010000000020;stroke-linecap:round;stroke-linejoin:round;stroke-miterlimit:4;stroke-opacity:1;stroke-dasharray:none"
       d="m 310.7244,526.13752 c -75.35864,-76.6271 -143.34479,19.91952 -143.34479,19.91952 0,0 18.15349,-18.41393 45.67216,-0.15089 0,0 11.67306,-15.40987 31.79476,-5.29119 0,0 9.8302,-13.61083 30.30124,-3.41789"
       id="path3757"
       inkscape:connector-curvature="0" />
    <path
       style="fill:#88aa00;fill-opacity:1;stroke:#aad400;stroke-width:2.34299993999999990;stroke-linecap:round;stroke-linejoin:round;stroke-miterlimit:4;stroke-opacity:1;stroke-dasharray:none"
       d="m 329.6554,522.23139 c 2.03913,0.81705 81.15756,-23.69442 81.15756,-23.69442 l 3.26261,15.1154 -4.89392,15.52393 -12.23481,-11.43869 -3.67044,13.48133 -9.38002,-9.39607 -6.1174,11.43868 -7.74871,-8.98754 -4.89393,11.43869 -7.34088,-8.98755 -5.30175,7.76198 -6.52524,-4.90231"
       id="path3763"
       inkscape:connector-curvature="0" />
    <path
       style="fill:#88aa00;fill-opacity:1;stroke:#aad400;stroke-width:2.34300000000000000;stroke-linecap:round;stroke-linejoin:round;stroke-opacity:1;stroke-miterlimit:4;stroke-dasharray:none"
       d="m 322.11059,544.90451 c 2.03913,-0.81706 81.15756,23.69441 81.15756,23.69441 l 3.2626,-15.11539 -4.89391,-15.52395 -12.23482,11.43869 -3.67045,-13.48131 -9.38001,9.39606 -6.1174,-11.43868 -7.74872,8.98754 -4.8939,-11.4387 -7.34089,8.98756 -5.30176,-7.76197 -6.52524,4.9023"
       id="path3763-1"
       inkscape:connector-curvature="0" />
    <path
       sodipodi:type="arc"
       style="fill:#ccff00;fill-opacity:1;stroke:#445500;stroke-width:3.90000010000000020;stroke-miterlimit:4;stroke-opacity:1;stroke-dasharray:none;stroke-linejoin:round;stroke-linecap:round"
       id="path3785"
       sodipodi:cx="338.90619"
       sodipodi:cy="507.88995"
       sodipodi:rx="15.909903"
       sodipodi:ry="17.172594"
       d="m 354.81609,507.88995 a 15.909903,17.172594 0 1 1 -31.8198,0 15.909903,17.172594 0 1 1 31.8198,0 z" />
    <path
       style="fill:#ff0000;fill-opacity:1;stroke:#d40000;stroke-width:1.31800000000000010;stroke-miterlimit:4;stroke-opacity:1;stroke-dasharray:none;stroke-linejoin:round;stroke-linecap:round"
       d="m 407.38288,504.02834 c -1.89063,-1.04328 -3.43635,-1.93917 -3.43493,-1.99087 0.005,-0.20069 5.73079,-1.84239 5.8775,-1.68534 0.11628,0.12449 1.26278,5.14572 1.26278,5.53051 0,0.17046 -0.38764,-0.0235 -3.70535,-1.8543 z"
       id="path3809"
       inkscape:connector-curvature="0" />
    <path
       style="fill:#ccff00;fill-opacity:1;stroke:#445500;stroke-width:0.38512066;stroke-miterlimit:4;stroke-opacity:1;stroke-dasharray:none"
       d=""
       id="path3841"
       inkscape:connector-curvature="0" />
    <path
       sodipodi:type="arc"
       style="fill:#ffdd55;fill-opacity:1;stroke:#ffeeaa;stroke-width:6.09999990000000030;stroke-linecap:round;stroke-linejoin:round;stroke-miterlimit:4;stroke-opacity:1;stroke-dasharray:none"
       id="path3855"
       sodipodi:cx="341.25"
       sodipodi:cy="113.79076"
       sodipodi:rx="59.107143"
       sodipodi:ry="59.285713"
       d="m 400.35714,113.79076 a 59.107143,59.285713 0 1 1 -118.21428,0 59.107143,59.285713 0 1 1 118.21428,0 z" />
  </g>
</svg>
